HIERARCHY
ROOT RootJoint
{
    OFFSET   0.000000   0.000000   0.000000
    CHANNELS 6 Xposition Yposition Zposition Xrotation Yrotation Zrotation
    JOINT pelvis_lowerback
    {
        OFFSET   0.000000   0.093605   0.000000
        CHANNELS 3 Xrotation Yrotation Zrotation
        JOINT lowerback_torso
        {
            OFFSET   0.000000   0.100000   0.000000
            CHANNELS 3 Xrotation Yrotation Zrotation
            JOINT torso_head
            {
                OFFSET   0.000000   0.282350   0.000000
                CHANNELS 3 Xrotation Yrotation Zrotation
                End Site
                {
                    OFFSET   0.000000   0.192650   0.000000
                }
            }
            JOINT rTorso_Clavicle
            {
                OFFSET  -0.001000   0.157500   0.000000
                CHANNELS 3 Xrotation Yrotation Zrotation
                JOINT rShoulder
                {
                    OFFSET  -0.117647   0.000000   0.000000
                    CHANNELS 3 Xrotation Yrotation Zrotation
                    JOINT rElbow
                    {
                        OFFSET  -0.245000   0.000000   0.000000
                        CHANNELS 3 Xrotation Yrotation Zrotation
                        JOINT rWrist
                        {
                            OFFSET  -0.240000   0.000000   0.000000
                            CHANNELS 3 Xrotation Yrotation Zrotation
                            End Site
                            {
                                OFFSET  -0.116353  -0.002500   0.000000
                            }
                        }
                    }
                }
            }
            JOINT lTorso_Clavicle
            {
                OFFSET   0.001000   0.157500   0.000000
                CHANNELS 3 Xrotation Yrotation Zrotation
                JOINT lShoulder
                {
                    OFFSET   0.117647   0.000000   0.000000
                    CHANNELS 3 Xrotation Yrotation Zrotation
                    JOINT lElbow
                    {
                        OFFSET   0.245000   0.000000   0.000000
                        CHANNELS 3 Xrotation Yrotation Zrotation
                        JOINT lWrist
                        {
                            OFFSET   0.240000   0.000000   0.000000
                            CHANNELS 3 Xrotation Yrotation Zrotation
                            End Site
                            {
                                OFFSET   0.116353  -0.002500   0.000000
                            }
                        }
                    }
                }
            }
        }
    }
    JOINT rHip
    {
        OFFSET  -0.100000  -0.051395   0.000000
        CHANNELS 3 Xrotation Yrotation Zrotation
        JOINT rKnee
        {
            OFFSET   0.000000  -0.410000   0.000000
            CHANNELS 3 Xrotation Yrotation Zrotation
            JOINT rAnkle
            {
                OFFSET   0.000000  -0.390000   0.000000
                CHANNELS 3 Xrotation Yrotation Zrotation
                JOINT rToeJoint
                {
                    OFFSET   0.000000  -0.050000   0.130000
                    CHANNELS 3 Xrotation Yrotation Zrotation
                    End Site
                    {
                        OFFSET  -0.010000   0.002000   0.060000
                    }
                }
            }
        }
    }
    JOINT lHip
    {
        OFFSET   0.100000  -0.051395   0.000000
        CHANNELS 3 Xrotation Yrotation Zrotation
        JOINT lKnee
        {
            OFFSET   0.000000  -0.410000   0.000000
            CHANNELS 3 Xrotation Yrotation Zrotation
            JOINT lAnkle
            {
                OFFSET   0.000000  -0.390000   0.000000
                CHANNELS 3 Xrotation Yrotation Zrotation
                JOINT lToeJoint
                {
                    OFFSET   0.000000  -0.050000   0.130000
                    CHANNELS 3 Xrotation Yrotation Zrotation
                    End Site
                    {
                        OFFSET   0.010000   0.002000   0.060000
                    }
                }
            }
        }
    }
}
MOTION
Frames: 17
Frame Time:   0.008333
 -2.302756   0.900733   3.934308 -12.641919  73.983751  16.396381   6.661851   6.692729   0.286813  -1.119237   4.196478  -1.358517  -0.918170   5.622057  -3.053405   4.281833   2.318166   8.382399  15.867811  20.380700  47.874580  -0.000034  23.293295  -0.000350   8.645778   3.781044 -16.400234   1.489960  -1.630016 -10.824072   8.082983 -11.440238 -52.119922   0.001073 -25.354531   0.004569   5.936713  -4.515252  18.708207   4.543823 -33.014160 -10.910727  20.756958   0.002015   0.001201 -13.472950 -34.821947  -3.541821  -5.988950  -0.003229  -0.000520 -11.387823   4.645316  -1.387699  15.214198   0.001890   0.003294  -0.557453   6.872990   5.550261  -0.615114   0.000472  -0.000024
 -2.300501   0.900669   3.932821 -12.965455  74.632866  16.765462   6.651870   6.707007   0.175494  -1.150371   4.196186  -1.437468  -1.009766   5.595482  -2.942199   4.164156   2.295050   8.402830  15.699044  20.239341  47.940209   0.000001  23.276821  -0.000232   8.644025   3.783599 -16.230908   1.417193  -1.683551 -10.811680   7.971587 -11.479105 -52.023211   0.001025 -25.234963   0.004337   5.880283  -4.505756  18.461176   4.447814 -33.347594 -11.113364  21.004850   0.002261   0.001429 -12.808112 -34.983838  -3.194989  -7.507121  -0.006832  -0.003050 -11.519171   4.387264  -1.659655  15.430595   0.001869   0.003245  -0.746195   6.545673   5.621305  -0.483707   0.000504  -0.000017
 -2.298276   0.900599   3.931411 -13.366254  75.288240  17.201216   6.645802   6.723930   0.060488  -1.174508   4.194060  -1.511704  -1.094524   5.570541  -2.836545   4.056733   2.271286   8.429338  15.542219  20.106604  48.005965   0.000026  23.260180  -0.000132   8.636540   3.771936 -16.064465   1.343568  -1.735516 -10.794654   7.864258 -11.515416 -51.923073   0.000979 -25.122972   0.004119   5.824002  -4.491693  18.235012   4.364194 -33.662040 -11.304014  21.277967   0.002544   0.001718 -12.175157 -35.135507  -2.865760  -8.830377  -0.009177  -0.005266 -11.643334   4.122154  -1.917669  15.649707   0.001844   0.003225  -0.928172   6.212344   5.686126  -0.362685   0.000517  -0.000012
 -2.296058   0.900558   3.930060 -13.804844  75.927583  17.658303   6.637703   6.747333  -0.046926  -1.195967   4.196958  -1.581007  -1.173011   5.547684  -2.738871   3.957820   2.249103   8.458322  15.396604  19.982830  48.069318   0.000044  23.244100  -0.000052   8.628633   3.756993 -15.898105   1.276048  -1.781678 -10.777336   7.765390 -11.547636 -51.826854   0.000925 -25.017693   0.003905   5.768641  -4.474413  18.026807   4.293923 -33.960646 -11.473949  21.552294   0.002770   0.001949 -11.605204 -35.278989  -2.563064  -9.767627  -0.009835  -0.006288 -11.754769   3.859724  -2.152860  15.856194   0.001793   0.003159  -1.101251   5.885711   5.746301  -0.251616   0.000515  -0.000009
 -2.293870   0.900519   3.928755 -14.251054  76.545536  18.121525   6.628538   6.775371  -0.158608  -1.216896   4.205019  -1.649620  -1.246532   5.526555  -2.648493   3.864540   2.230103   8.487315  15.259322  19.869076  48.130795   0.000054  23.230042   0.000006   8.622223   3.746126 -15.734971   1.214848  -1.822440 -10.756612   7.675026 -11.575882 -51.734448   0.000865 -24.918833   0.003686   5.714400  -4.454724  17.832722   4.228797 -34.236062 -11.636062  21.816922   0.002920   0.002118 -11.028407 -35.408171  -2.264273 -10.699046  -0.010334  -0.007238 -11.861365   3.605948  -2.378918  16.053182   0.001726   0.003060  -1.266525   5.570224   5.801018  -0.149762   0.000504  -0.000007
 -2.291717   0.900485   3.927487 -14.698038  77.138616  18.582968   6.619452   6.807275  -0.270029  -1.236959   4.217830  -1.718034  -1.315288   5.506956  -2.565185   3.775520   2.214526   8.515245  15.129598  19.764412  48.188468   0.000060  23.217748   0.000047   8.617385   3.739709 -15.578227   1.159814  -1.858337 -10.735484   7.592655 -11.600532 -51.646713   0.000800 -24.825711   0.003463   5.661067  -4.431791  17.650116   4.168223 -34.492590 -11.789175  22.067382   0.002992   0.002210 -10.477623 -35.527052  -1.979453 -11.496217  -0.010293  -0.007697 -11.963365   3.362563  -2.594567  16.240266   0.001647   0.002933  -1.424476   5.267675   5.850704  -0.056342   0.000485  -0.000006
 -2.289604   0.900457   3.926251 -15.141209  77.705591  19.037640   6.610938   6.841955  -0.379329  -1.255835   4.234511  -1.785622  -1.379509   5.488729  -2.488152   3.690296   2.202069   8.541419  15.006948  19.668037  48.241928   0.000061  23.207055   0.000074   8.613936   3.737287 -15.429342   1.110628  -1.889923 -10.715199   7.517667 -11.622092 -51.564355   0.000730 -24.737985   0.003239   5.608695  -4.405832  17.476431   4.111347 -34.731530 -11.933294  22.303256   0.002996   0.002238  -9.953961 -35.636317  -1.708854 -12.159622  -0.009852  -0.007730 -12.060814   3.130193  -2.799497  16.417057   0.001561   0.002783  -1.575438   4.978761   5.895886   0.029338   0.000463  -0.000006
 -2.287461   0.900494   3.925044 -15.684295  78.308115  19.596346   6.552630   6.857240  -0.512365  -1.218637   4.217102  -1.839668  -1.452432   5.460517  -2.375086   3.594233   2.202996   8.587558  14.871952  19.557612  48.300053   0.000103  23.164431   0.000197   8.611438   3.728151 -15.279499   1.083948  -1.928392 -10.695253   7.393637 -11.628863 -51.466763   0.000682 -24.651168   0.003062   5.541443  -4.361112  17.279542   3.961762 -34.949083 -12.145245  22.711360   0.003547   0.002722  -9.016694 -35.688663  -1.236067 -14.173248  -0.014212  -0.013195 -12.119187   2.871262  -3.018540  16.512294   0.001381   0.002471  -1.685496   4.678256   5.966582   0.107048   0.000421  -0.000005
 -2.285259   0.900620   3.923893 -16.355529  78.919339  20.248348   6.489840   6.866143  -0.627142  -1.182873   4.193138  -1.881116  -1.519350   5.433156  -2.266888   3.508634   2.200575   8.637388  14.748350  19.452899  48.358060   0.000132  23.122514   0.000295   8.604654   3.704767 -15.129395   1.056327  -1.965721 -10.674154   7.276029 -11.635694 -51.371264   0.000634 -24.570175   0.002888   5.475324  -4.313606  17.094950   3.829961 -35.155077 -12.325361  23.156968   0.004133   0.003252  -8.166497 -35.731556  -0.799980 -15.513213  -0.015370  -0.015639 -12.151239   2.597645  -3.201749  16.580601   0.001197   0.002158  -1.784596   4.369186   6.035773   0.177915   0.000381  -0.000005
 -2.283036   0.900761   3.922782 -17.062702  79.512738  20.932282   6.426258   6.878832  -0.750171  -1.153380   4.172691  -1.921847  -1.582388   5.407778  -2.166183   3.429428   2.198818   8.686796  14.632130  19.356966  48.417363   0.000152  23.084462   0.000362   8.598835   3.684718 -14.978685   1.028731  -2.000446 -10.644343   7.165637 -11.641734 -51.276569   0.000586 -24.495326   0.002711   5.412465  -4.270175  16.927174   3.702740 -35.348194 -12.496928  23.590811   0.004559   0.003623  -7.292794 -35.767295  -0.363764 -16.847225  -0.016267  -0.017636 -12.176933   2.330584  -3.373966  16.641994   0.001037   0.001884  -1.882570   4.068226   6.099774   0.242825   0.000345  -0.000004
 -2.280800   0.900916   3.921695 -17.794995  80.082797  21.636525   6.363184   6.894785  -0.873992  -1.129061   4.156791  -1.964402  -1.641553   5.384237  -2.073646   3.354444   2.198610   8.734260  14.522520  19.268724  48.473947   0.000165  23.049684   0.000404   8.594438   3.669263 -14.831878   1.002370  -2.032181 -10.611682   7.062690 -11.646629 -51.184317   0.000535 -24.425464   0.002532   5.352278  -4.228759  16.774776   3.583572 -35.528670 -12.657355  24.004827   0.004826   0.003833  -6.459690 -35.796827   0.050683 -17.941961  -0.016116  -0.018248 -12.198084   2.072732  -3.534185  16.699444   0.000901   0.001650  -1.981228   3.778677   6.158686   0.302329   0.000313  -0.000004
 -2.278559   0.901082   3.920622 -18.542118  80.627457  22.352037   6.301337   6.913291  -0.997120  -1.109103   4.145095  -2.008842  -1.697058   5.362338  -1.988389   3.282710   2.200077   8.778545  14.418857  19.187523  48.526701   0.000172  23.017980   0.000426   8.591333   3.658102 -14.691965   0.977834  -2.061092 -10.578542   6.966985 -11.650581 -51.096103   0.000483 -24.360130   0.002354   5.294438  -4.188499  16.633928   3.471347 -35.696654 -12.807856  24.396380   0.004955   0.003906  -5.666065 -35.820220   0.444232 -18.822969  -0.015282  -0.017834 -12.215956   1.825683  -3.683772  16.753392   0.000786   0.001448  -2.080637   3.501920   6.212699   0.356878   0.000284  -0.000004
 -2.276318   0.901256   3.919557 -19.296951  81.146336  23.072817   6.241443   6.933532  -1.118898  -1.092697   4.136913  -2.055045  -1.749101   5.341928  -1.909653   3.213824   2.203078   8.819196  14.320738  19.112744  48.575302   0.000175  22.989109   0.000432   8.589336   3.650724 -14.560270   0.955237  -2.087521 -10.546220   6.878084 -11.653836 -51.012687   0.000430 -24.299007   0.002177   5.238833  -4.149232  16.501713   3.364789 -35.852663 -12.949765  24.764843   0.004971   0.003872  -4.910505 -35.838075   0.817712 -19.514954  -0.014034  -0.016712 -12.231481   1.590126  -3.824116  16.804077   0.000688   0.001273  -2.180586   3.238375   6.262009   0.406884   0.000259  -0.000004
 -2.274048   0.901574   3.918556 -20.204826  81.680377  23.927050   6.129163   6.935120  -1.244986  -1.009343   4.100916  -2.087405  -1.789448   5.291643  -1.803704   3.159774   2.243105   8.867945  14.207768  19.033146  48.642419   0.000188  22.944130   0.000493   8.567024   3.642546 -14.434547   0.962279  -2.115945 -10.517500   6.735414 -11.571594 -50.899543   0.000330 -24.313205   0.001667   5.140225  -4.108410  16.330475   3.169935 -35.924852 -13.150515  25.341797   0.005830   0.004574  -3.833434 -35.715252   1.361021 -20.917608  -0.015431  -0.021063 -12.191164   1.329211  -3.945723  16.747056   0.000486   0.000888  -2.229236   2.972220   6.323419   0.454071   0.000230  -0.000004
 -2.271760   0.901972   3.917653 -21.309041  82.219941  24.945024   6.020711   6.929070  -1.364932  -0.925558   4.059710  -2.107412  -1.823936   5.242398  -1.702998   3.115087   2.277524   8.920859  14.104459  18.959058  48.714434   0.000192  22.901734   0.000536   8.544226   3.631447 -14.298822   0.966325  -2.140212 -10.473187   6.601562 -11.492325 -50.780680   0.000249 -24.327949   0.001256   5.046015  -4.080002  16.188981   2.991954 -35.986637 -13.314037  25.949645   0.006648   0.005281  -2.785683 -35.574130   1.888181 -21.889733  -0.015127  -0.022463 -12.131069   1.054203  -4.028198  16.666038   0.000303   0.000520  -2.268001   2.698472   6.385738   0.497218   0.000201  -0.000003
 -2.269453   0.902412   3.916818 -22.541573  82.745997  26.073861   5.916753   6.925114  -1.484713  -0.846263   4.021201  -2.123839  -1.855339   5.196411  -1.610015   3.077285   2.307381   8.974055  14.009817  18.889772  48.787202   0.000192  22.862116   0.000562   8.522620   3.621563 -14.157025   0.969415  -2.160657 -10.417850   6.477376 -11.416054 -50.660084   0.000186 -24.341540   0.000936   4.955821  -4.053252  16.072100   2.830787 -36.044731 -13.448386  26.545360   0.007235   0.005768  -1.778581 -35.429527   2.390750 -22.528383  -0.013858  -0.021586 -12.062548   0.779355  -4.084573  16.577603   0.000156   0.000212  -2.306977   2.429030   6.446638   0.536704   0.000175  -0.000003
 -2.267132   0.902867   3.916022 -23.871595  83.250814  27.292685   5.817881   6.924701  -1.606476  -0.772160   3.987421  -2.141748  -1.884417   5.153637  -1.524670   3.043626   2.334504   9.024822  13.922264  18.825121  48.857571   0.000192  22.825236   0.000573   8.502310   3.613183 -14.015065   0.972584  -2.177496 -10.356457   6.362615 -11.342721 -50.540611   0.000138 -24.353694   0.000688   4.868606  -4.024983  15.973872   2.681766 -36.099329 -13.563820  27.115009   0.007575   0.006014  -0.815993 -35.285090   2.866891 -22.906912  -0.012093  -0.019323 -11.991031   0.511553  -4.124988  16.488537   0.000042  -0.000030  -2.349537   2.169097   6.504802   0.532769   0.000139  -0.000002
